<svg xmlns="http://www.w3.org/2000/svg" width="926" height="320" viewBox="0 0 926 320">
  <metadata><?xpacket begin="﻿" id="W5M0MpCehiHzreSzNTczkc9d"?>
<x:xmpmeta xmlns:x="adobe:ns:meta/" x:xmptk="Adobe XMP Core 5.6-c142 79.160924, 2017/07/13-01:06:39        ">
   <rdf:RDF xmlns:rdf="http://www.w3.org/1999/02/22-rdf-syntax-ns#">
      <rdf:Description rdf:about=""/>
   </rdf:RDF>
</x:xmpmeta>
                                                                                                    
                                                                                                    
                                                                                                    
                                                                                                    
                                                                                                    
                                                                                                    
                                                                                                    
                                                                                                    
                                                                                                    
                                                                                                    
                                                                                                    
                                                                                                    
                                                                                                    
                                                                                                    
                                                                                                    
                                                                                                    
                                                                                                    
                                                                                                    
                                                                                                    
                                                                                                    
                           
<?xpacket end="w"?></metadata>
<defs>
    <style>
      .cls-1 {
        stroke: #000;
        stroke-width: 1px;
        fill-rule: evenodd;
      }
    </style>
  </defs>
  <path class="cls-1" d="M91.6,0L219.519,0.387c33,0,65.075-.717,88.5,8.906,29.4,12.077,51.3,28.747,63.768,57.7,3.632,8.433,4.7,17.924,6.957,27.881,0.865,3.809,1.086,13.482.386,16.651v6.583q-0.579,6-1.159,12c-3.741,15.041-7.791,26.994-15.073,37.949-16.75,25.2-39.494,37.256-72.271,46.468-19.353,5.44-46.2,4.259-70.339,4.26-38.121,0-76.038-.008-113.238,0v0.387c2.053,2.321,2.587,5.781,4.252,8.519,4.151,6.83,7.877,14.565,11.594,21.685,1.35,2.586,1.967,5.257,3.478,7.745,7.978,13.135,14.068,27.588,21.256,41.434,2.546,4.9,5.065,9.979,7.73,15.1,1,1.929,2.456,3.459,3.092,5.809H79.614c-1.131-4.807-5.091-9.81-7.343-13.941-5.557-10.193-9.924-20.874-15.846-30.591-1.962-3.221-2.681-6.844-4.638-10.068-10.353-17.057-17.842-36.393-28.213-53.439-1.96-3.222-2.682-6.842-4.638-10.068-4.841-7.982-8.752-16.71-13.14-25.17-1.842-3.552-5.1-7.3-5.8-11.617,3.132-3.529,4.444-8.649,6.957-12.779,4.868-8,8.943-16.6,13.913-24.782,12.494-20.562,23.423-42.582,35.942-63.119,3.8-6.231,6.263-12.745,10.048-18.974,6.244-10.276,11.429-21.3,17.778-31.753C86.881,9.472,91.1,4.968,91.6,0ZM456.043,0.387h71.112c-0.123,2.745-1.485,4.583-2.319,6.583-2.074,4.973-3.469,10.051-5.41,14.715-5.66,13.6-9.536,27.742-15.073,41.047-3.967,9.533-6.119,19.091-10.048,28.655-10.8,26.282-19.263,54.29-30.146,80.545-3.539,8.539-5.382,17-8.889,25.557-6.4,15.607-11.728,32.425-18.164,48.017-1.639,3.97-2.745,7.946-4.251,11.617-0.438,1.068-.958,3.252-0.773,3.485,2.4,1.478,9.437.387,12.754,0.387H570.054c3.637,1.627,8.583,1.886,12.368,3.485a42.447,42.447,0,0,1,18.164,15.1c3.733,5.249,10.567,18.069,8.116,29.042-0.825,3.7-1.9,7.425-2.705,10.843H437.106c-1.429.885-5.208,0.387-7.343,0.387h-19.71c-7.464-1.128-16.98-.387-25.121-0.387H337.4c0.289-2.851,1.783-5.136,2.705-7.358,2.321-5.593,3.989-11.353,6.184-16.651,6.807-16.433,11.884-33.418,18.551-49.566,4.326-10.48,6.892-20.912,11.208-31.366,13.651-33.065,24.668-67.99,38.261-101.068,3.9-9.479,6.152-18.823,10.048-28.268,7.653-18.552,13.5-38.052,21.257-56.923,2.454-5.968,4.384-12.322,6.956-18.587C453.738,6.826,455.528,3.842,456.043.387ZM926,0.387c0.431,36.465-24.568,58.626-53.334,66.217-8.856,2.337-21.158,1.162-31.691,1.162l-55.266.387c0.327,2.472,2.023,4.064,3.092,5.809,3.22,5.259,5.767,10.787,8.888,15.876,9.993,16.291,17.509,33.621,27.44,49.953,3.093,5.086,5.692,10.614,8.889,15.877,1.794,2.952,4.789,6.157,5.411,10.068-2.334,2.631-3.327,6.414-5.024,9.681-2.362,4.546-5.073,9.581-7.73,13.94-1.962,3.221-2.681,6.844-4.637,10.068-16.251,26.776-27.785,57.272-44.059,84.03-2.109,3.468-2.919,7.371-5.024,10.842-2.8,4.622-5.608,9.9-8.116,14.715-0.758,1.457-4.354,9.98-5.024,10.456H680.973v-0.775c2.493-2.825,3.605-6.977,5.411-10.455,3.773-7.267,7.3-14.64,11.208-22.073,5.386-10.254,10.6-21.474,16.618-31.365,2.963-4.866,4.88-10.42,7.73-15.1,1.067-1.753,1.37-3.593,2.319-5.421,2.6-5.012,5.516-10.112,8.116-15.1,1.48-2.841,2.207-5.786,3.865-8.519,4.14-6.826,7.893-14.576,11.594-21.685,1.347-2.588,1.969-5.255,3.478-7.745,2.262-3.732,7.67-12.319,8.5-16.651-0.983-1.11-1.112-2.521-1.933-3.872-3.8-6.262-6.526-13.308-10.435-19.749-9.018-14.861-16.816-31.181-25.121-46.468-3.465-6.378-6.69-12.789-10.048-18.974-0.812-1.495-2.728-7.123-3.865-7.745H621.842c-5.777,0-11.734.478-16.618-.774-27.017-6.927-44.639-21.765-52.948-47.242-1.883-5.777-1.427-12.327-2.7-18.974,2.924-.962,7.984-0.387,11.594-0.387H926ZM160,66.217c-1.555.976-5.823,0.387-8.116,0.387H131.4c-0.807,3.308-3.383,6.6-5.024,9.294-2.48,4.073-4.2,8.5-6.57,12.391q-1.353,3.1-2.705,6.2c-5.04,8.308-9.257,17.647-14.3,25.945q-1.353,3.1-2.7,6.195c-3.518,5.8-6.407,12-9.662,18.2-1.245,2.372-3.054,4.475-3.865,7.358h29.372c2.494,1.552,12.087,0,15.459,0H241.548c15.116,0,30.274.612,40.967-3.873,14.141-5.931,21.074-15.511,24.735-32.14V109.2c0-12.536-3.675-19.7-8.889-26.719-11.848-15.947-34.92-15.877-63-15.877C210.239,66.6,184.539,66.211,160,66.217Z"/>
</svg>
